<svg width="40" height="40" viewBox="0 0 40 40" fill="none" xmlns="http://www.w3.org/2000/svg">
<circle cx="20" cy="20" r="19.5" fill="#333333" stroke="#444444"/>
<path d="M12 15H18M15 12V18M22 24H28M18 21L12 27M12 21L18 27M22 15H28M25.75 27.2C25.75 27.6418 25.4142 28 25 28C24.5858 28 24.25 27.6418 24.25 27.2C24.25 26.7582 24.5858 26.4 25 26.4C25.4142 26.4 25.75 26.7582 25.75 27.2ZM25.75 20.8C25.75 21.2418 25.4142 21.6 25 21.6C24.5858 21.6 24.25 21.2418 24.25 20.8C24.25 20.3582 24.5858 20 25 20C25.4142 20 25.75 20.3582 25.75 20.8Z" stroke="#AAAAAA" stroke-linecap="round" stroke-linejoin="round"/>
</svg>
