<svg width="18" height="13" viewBox="0 0 18 13" fill="none" xmlns="http://www.w3.org/2000/svg">
<path d="M0.650008 6.37345C0.583339 6.19703 0.583339 6.00297 0.650008 5.82655C1.29934 4.28001 2.40153 2.95768 3.81686 2.0272C5.2322 1.09672 6.89693 0.599998 8.60001 0.599998C10.3031 0.599998 11.9678 1.09672 13.3831 2.0272C14.7985 2.95768 15.9007 4.28001 16.55 5.82655C16.6167 6.00297 16.6167 6.19703 16.55 6.37345C15.9007 7.91999 14.7985 9.24232 13.3831 10.1728C11.9678 11.1033 10.3031 11.6 8.60001 11.6C6.89693 11.6 5.2322 11.1033 3.81686 10.1728C2.40153 9.24232 1.29934 7.91999 0.650008 6.37345Z" stroke="#DBDBDB" stroke-width="1.2" stroke-linecap="round" stroke-linejoin="round"/>
<path d="M8.60001 8.45735C9.92542 8.45735 10.9999 7.40193 10.9999 6.1C10.9999 4.79807 9.92542 3.74265 8.60001 3.74265C7.27459 3.74265 6.20013 4.79807 6.20013 6.1C6.20013 7.40193 7.27459 8.45735 8.60001 8.45735Z" stroke="#DBDBDB" stroke-width="1.2" stroke-linecap="round" stroke-linejoin="round"/>
</svg>
