<svg width="27" height="21" viewBox="0 0 27 21" fill="none" xmlns="http://www.w3.org/2000/svg">
<g style="mix-blend-mode:plus-lighter">
<path d="M2.64796 9.5127C2.16651 9.5127 1.7238 9.39372 1.31983 9.15576C0.921394 8.91227 0.600431 8.59131 0.356941 8.19287C0.118985 7.79443 7.62939e-06 7.34896 7.62939e-06 6.85645C7.62939e-06 6.375 0.118985 5.93506 0.356941 5.53662C0.594897 5.13265 0.913094 4.81169 1.31153 4.57373C1.7155 4.33577 2.16098 4.2168 2.64796 4.2168C3.13494 4.2168 3.57764 4.33854 3.97608 4.58203C4.37452 4.81999 4.69272 5.13818 4.93067 5.53662C5.16863 5.93506 5.28761 6.375 5.28761 6.85645C5.28761 7.34896 5.16863 7.79443 4.93067 8.19287C4.69272 8.59131 4.37452 8.91227 3.97608 9.15576C3.57764 9.39372 3.13494 9.5127 2.64796 9.5127ZM2.64796 8.07666C2.98552 8.07666 3.27052 7.95768 3.50294 7.71973C3.74089 7.48177 3.85987 7.19401 3.85987 6.85645C3.85987 6.52995 3.74089 6.24772 3.50294 6.00977C3.26498 5.76628 2.97999 5.64453 2.64796 5.64453C2.31593 5.64453 2.02817 5.76351 1.78468 6.00146C1.54672 6.23389 1.42774 6.51888 1.42774 6.85645C1.42774 7.19401 1.54672 7.48177 1.78468 7.71973C2.02817 7.95768 2.31593 8.07666 2.64796 8.07666ZM13.439 5.2876C12.9575 5.2876 12.5148 5.16862 12.1108 4.93066C11.7124 4.69271 11.3914 4.37451 11.148 3.97607C10.91 3.5721 10.791 3.12663 10.791 2.63965C10.791 2.15267 10.91 1.70996 11.148 1.31152C11.3859 0.913086 11.7041 0.594889 12.1025 0.356934C12.5065 0.118978 12.952 0 13.439 0C13.926 0 14.3687 0.118978 14.7671 0.356934C15.1711 0.594889 15.492 0.915853 15.73 1.31982C15.9679 1.71826 16.0869 2.1582 16.0869 2.63965C16.0869 3.12663 15.9679 3.5721 15.73 3.97607C15.492 4.37451 15.1711 4.69271 14.7671 4.93066C14.3687 5.16862 13.926 5.2876 13.439 5.2876ZM13.439 3.85986C13.7765 3.85986 14.0615 3.74089 14.294 3.50293C14.5319 3.25944 14.6509 2.97168 14.6509 2.63965C14.6509 2.30762 14.5319 2.02262 14.294 1.78467C14.056 1.54671 13.771 1.42773 13.439 1.42773C13.1069 1.42773 12.8192 1.54671 12.5757 1.78467C12.3377 2.01709 12.2188 2.30208 12.2188 2.63965C12.2188 2.97168 12.3377 3.25944 12.5757 3.50293C12.8192 3.74089 13.1069 3.85986 13.439 3.85986ZM24.2217 9.5127C23.7402 9.5127 23.2975 9.39372 22.8936 9.15576C22.4951 8.91227 22.1769 8.59131 21.939 8.19287C21.701 7.79443 21.582 7.34896 21.582 6.85645C21.582 6.375 21.701 5.93506 21.939 5.53662C22.1769 5.13818 22.4951 4.81999 22.8936 4.58203C23.2975 4.33854 23.7402 4.2168 24.2217 4.2168C24.7142 4.2168 25.1597 4.33577 25.5581 4.57373C25.9566 4.81169 26.2747 5.13265 26.5127 5.53662C26.7562 5.93506 26.8779 6.375 26.8779 6.85645C26.8779 7.34896 26.7562 7.79443 26.5127 8.19287C26.2747 8.59131 25.9538 8.91227 25.5498 9.15576C25.1514 9.39372 24.7087 9.5127 24.2217 9.5127ZM24.2217 8.07666C24.5593 8.07666 24.847 7.95768 25.085 7.71973C25.3229 7.48177 25.4419 7.19401 25.4419 6.85645C25.4419 6.51888 25.3229 6.23389 25.085 6.00146C24.847 5.76351 24.5593 5.64453 24.2217 5.64453C23.8952 5.64453 23.6102 5.76628 23.3667 6.00977C23.1288 6.24772 23.0098 6.52995 23.0098 6.85645C23.0098 7.19401 23.126 7.48177 23.3584 7.71973C23.5964 7.95768 23.8841 8.07666 24.2217 8.07666ZM3.82667 8.88184L4.55714 7.70312L7.76954 9.67871C7.95769 9.79492 8.12094 9.84196 8.25928 9.81982C8.39763 9.79769 8.52491 9.70915 8.64112 9.5542L12.3516 4.64014L13.6631 5.20459L9.67042 10.4839C9.33285 10.9377 8.92888 11.1867 8.4585 11.231C7.98813 11.2752 7.57309 11.1867 7.21339 10.9653L3.82667 8.88184ZM23.043 8.85693L19.5234 11.0151C19.3242 11.1424 19.0863 11.2171 18.8096 11.2393C18.5384 11.2614 18.2617 11.2171 17.9795 11.1064C17.7028 10.9902 17.4593 10.7938 17.249 10.5171L13.2232 5.17969L14.5347 4.61523L18.187 9.47119C18.3143 9.64274 18.4526 9.74512 18.6021 9.77832C18.757 9.80599 18.9424 9.75342 19.1582 9.62061L22.3125 7.67822L23.043 8.85693ZM5.2461 16.7344V15.3481H21.6318V16.7344H5.2461ZM2.68116 9.07275L3.97608 8.4834L6.2588 17.8467C6.45248 18.6491 6.97266 19.0503 7.81934 19.0503H19.0669C19.908 19.0503 20.4282 18.6491 20.6274 17.8467L22.9102 8.4834L24.2051 9.07275L22.0054 17.9961C21.8062 18.8206 21.4769 19.4321 21.0176 19.8306C20.5583 20.2345 19.9025 20.4365 19.0503 20.4365H7.82764C6.98096 20.4365 6.32797 20.2345 5.86866 19.8306C5.40935 19.4321 5.08009 18.8206 4.88087 17.9961L2.68116 9.07275Z" fill="#BFBFBF"/>
</g>
</svg>
