<svg width="44" height="44" viewBox="0 0 44 44" fill="none" xmlns="http://www.w3.org/2000/svg">
<rect width="44" height="44" rx="22" fill="black" fill-opacity="0.01"/>
<path d="M14.2804 29.7196C14.1558 29.595 14.0727 29.4469 14.0312 29.2755C13.9896 29.1093 13.9896 28.9406 14.0312 28.7692C14.0727 28.603 14.1532 28.4628 14.2726 28.3485L20.6212 22L14.2726 15.6514C14.1532 15.5372 14.0727 15.397 14.0312 15.2308C13.9896 15.0646 13.9896 14.8958 14.0312 14.7244C14.0727 14.5531 14.1558 14.4051 14.2804 14.2804C14.4051 14.1558 14.5505 14.0727 14.7166 14.0312C14.888 13.9896 15.0568 13.9896 15.223 14.0312C15.3892 14.0727 15.5346 14.1532 15.6592 14.2726L22 20.6212L28.3407 14.2804C28.4655 14.1558 28.6108 14.0727 28.777 14.0312C28.9432 13.9896 29.1093 13.9896 29.2755 14.0312C29.4417 14.0727 29.5872 14.1558 29.7118 14.2804C29.8416 14.4051 29.9272 14.5531 29.9688 14.7244C30.0104 14.8906 30.0104 15.0568 29.9688 15.223C29.9272 15.3892 29.8442 15.5346 29.7196 15.6592L23.3788 22L29.7196 28.3407C29.8442 28.4655 29.9247 28.6082 29.961 28.7692C30.0026 28.9354 30.0026 29.1015 29.961 29.2677C29.9247 29.4391 29.8416 29.5897 29.7118 29.7196C29.5872 29.8442 29.4417 29.9272 29.2755 29.9688C29.1093 30.0104 28.9432 30.0104 28.777 29.9688C28.6108 29.9272 28.4655 29.8442 28.3407 29.7196L22 23.3788L15.6592 29.7274C15.5346 29.8468 15.3892 29.9272 15.223 29.9688C15.0568 30.0104 14.8906 30.0104 14.7244 29.9688C14.5583 29.9272 14.4103 29.8442 14.2804 29.7196Z" fill="#D9D9D9"/>
</svg>
