<svg width="400" height="276" viewBox="0 0 400 276" fill="none" xmlns="http://www.w3.org/2000/svg">
<rect width="400" height="276" rx="16" fill="url(#paint0_radial_159_14)"/>
<path d="M237.629 257.611C227.077 262.02 213.618 268.472 200.859 265.784C188.099 263.095 176.201 251.319 168.772 243.093C161.342 234.92 160.373 223.52 158.435 213.25C156.874 204.97 150.79 200.023 148.368 191.957C176.471 182.225 211.195 181.364 242.206 191.957C253.135 214.326 263.633 246.695 237.629 257.611Z" fill="#F9C9C0"/>
<path d="M163.604 234.92C163.604 234.92 139 193.785 139 189.107C139 183.892 139.538 178.3 140.777 173.944C142.499 167.653 148.152 163.997 152.136 169.159C152.19 169.212 152.19 169.266 152.244 169.32C155.097 173.191 156.066 178.031 156.982 182.763C169.795 190.075 167.749 187.064 176.524 198.84C176.686 203.088 188.476 215.885 184.869 220.025C181.908 223.413 167.103 237.769 163.604 234.92Z" fill="#F9C9C0"/>
<path d="M152.028 181.956L186.538 188.731C179.916 173.245 169.687 159.641 157.951 148.188C158.22 142.327 158.435 136.251 156.335 130.874C154.182 125.551 148.691 121.572 143.253 122.755C142.284 132.165 141.638 146.521 140.83 157.921C140.454 163.19 141.961 168.46 145.083 172.761C147.345 175.934 149.713 178.999 152.028 181.956Z" fill="#F6B4A8"/>
<path opacity="0.34" d="M177.278 197.764C185.085 202.98 194.452 206.959 201.128 213.573C207.75 220.24 213.349 228.521 215.179 237.716C215.772 234.436 214.641 232.392 215.179 229.112C217.225 217.605 216.579 205.83 221.963 195.452L177.278 197.764Z" fill="#F9C9C0"/>
<path d="M195.529 185.666H196.014C201.505 179.859 205.004 170.933 204.95 162.975C194.614 148.134 180.401 136.09 165.003 126.68C164.088 120.873 163.065 114.851 159.674 110.011C156.336 105.172 149.714 102.376 144.222 104.527C145.407 116.249 147.237 129.852 148.475 141.574L195.529 185.666Z" fill="#F6B4A8"/>
<path opacity="0.34" d="M152.782 181.149C150.467 182.924 148.152 184.698 145.837 186.526C151.598 191.312 156.659 196.904 160.858 203.087C165.542 199.807 171.033 197.764 176.74 197.119C170.225 196.85 163.334 196.527 158.381 192.333C155.205 189.591 152.782 185.343 152.782 181.149Z" fill="#FFAB91"/>
<path d="M230.833 196.18H160.785C156.296 196.18 152.663 192.516 152.663 187.99V29.6284C152.663 25.1023 156.296 21.4382 160.785 21.4382H230.833C235.322 21.4382 238.955 25.1023 238.955 29.6284V187.99C238.955 192.516 235.322 196.18 230.833 196.18Z" fill="#444444"/>
<path d="M228.741 50.9214H162.877C160.023 50.9214 157.697 53.244 157.697 56.0945V121.973C157.697 124.823 160.023 127.146 162.877 127.146H228.741C231.596 127.146 233.921 124.823 233.921 121.973V56.0945C233.868 53.244 231.596 50.9214 228.741 50.9214Z" fill="#202020"/>
<path d="M231.213 197.618H160.405C154.941 197.618 150.506 193.208 150.506 187.777V29.8408C150.506 24.4095 154.941 20 160.405 20H231.213C236.677 20 241.112 24.4095 241.112 29.8408V187.777C241.112 193.208 236.677 197.618 231.213 197.618ZM160.405 23.2265C156.726 23.2265 153.751 26.1841 153.751 29.8408V187.777C153.751 191.434 156.726 194.391 160.405 194.391H231.213C234.892 194.391 237.867 191.434 237.867 187.777V29.8408C237.867 26.1841 234.892 23.2265 231.213 23.2265H160.405Z" fill="#282828"/>
<path d="M203.281 31.8293H188.584C186.807 31.8293 185.408 30.3775 185.408 28.6569V28.6031C185.408 26.8287 186.861 25.4307 188.584 25.4307H203.335C205.112 25.4307 206.512 26.8825 206.512 28.6031V28.6569C206.512 30.3775 205.058 31.8293 203.281 31.8293Z" fill="black"/>
<path d="M172.798 54.5168V56.1223H162.898V66.0225H161.292V54.5168H172.798Z" fill="#CCCCCC"/>
<path d="M218.82 123.551V121.899H228.675V112.045H230.326V123.551H218.82Z" fill="#CCCCCC"/>
<path d="M230.326 66.0225H228.72V56.1758H218.82V54.5168H230.326V66.0225Z" fill="#CCCCCC"/>
<path d="M161.292 112.045H162.951V121.945H172.798V123.551H161.292V112.045Z" fill="#CCCCCC"/>
<path d="M141.853 171.148C146.645 164.534 151.382 157.867 156.174 151.253C159.512 156.038 160.965 161.469 160.266 167.276C159.566 173.084 155.151 180.988 150.79 184.913C146.483 182.332 143.953 175.665 141.853 171.148Z" fill="#F9C9C0"/>
<path d="M223.416 251.911C214.426 244.329 207.104 226.639 210.549 215.993C213.51 206.69 216.902 200.937 230.631 187.871C230.146 177.977 231.761 175.02 229.931 164.696C220.455 156.254 213.026 145.177 216.902 133.079C227.723 140.876 239.191 148.081 250.012 155.877C252.704 171.793 255.557 187.494 258.249 203.41C259.756 212.336 261.264 221.37 260.133 230.349C258.303 245.244 244.844 262.773 228.1 254.868C226.431 254.116 224.87 253.148 223.416 251.911Z" fill="#F9C9C0"/>
<path d="M218.517 241.695C214.802 224.166 202.581 209.002 186.215 201.69C184.331 200.829 182.662 203.625 184.546 204.432C200.213 211.422 211.841 225.671 215.395 242.501C215.825 244.545 218.948 243.684 218.517 241.695Z" fill="#F6B4A8"/>
<path d="M238.222 165.287C225.085 161.039 217.064 148.296 218.625 134.638C218.84 132.595 215.61 132.541 215.395 134.584C213.672 149.694 222.878 163.728 237.306 168.406C239.298 169.051 240.16 165.932 238.222 165.287Z" fill="#F6B4A8"/>
<path d="M158.597 151.683C157.628 149.855 154.774 151.468 155.797 153.296C160.912 162.652 156.497 177.654 148.583 184.806C147.022 186.204 149.283 188.516 150.844 187.118C159.781 178.998 164.357 162.276 158.597 151.683Z" fill="#F6B4A8"/>
<path d="M232.569 163.513C232.515 161.469 229.285 161.416 229.339 163.459C229.554 171.148 229.769 178.837 229.985 186.526C230.038 188.57 233.269 188.623 233.215 186.58C232.999 178.891 232.784 171.202 232.569 163.513Z" fill="#F6B4A8"/>
<path d="M231.061 186.204C219.379 194.269 211.195 206.475 208.127 220.186C209.096 221.262 209.957 222.445 210.711 223.681C213.026 209.809 220.994 197.065 232.676 189.053C234.345 187.871 232.784 185.021 231.061 186.204Z" fill="#F6B4A8"/>
<path d="M185.461 255.191L186.484 276H258.088L253.888 246.426L185.461 255.191Z" fill="#F9C9C0"/>
<path opacity="0.34" d="M241.667 254.6C228.423 253.417 215.125 254.331 202.151 257.234C200.105 257.665 200.966 260.783 202.958 260.353C215.664 257.503 228.639 256.697 241.613 257.826C243.713 258.041 243.713 254.815 241.667 254.6Z" fill="#F6B4A8"/>
<path d="M171.647 99.4745C171.931 99.4745 172.18 99.5183 172.395 99.6059C172.609 99.6935 172.777 99.8176 172.897 99.9781C173.017 100.135 173.077 100.323 173.077 100.542C173.077 100.754 173.019 100.936 172.903 101.089C172.825 101.192 172.723 101.279 172.597 101.349C172.778 101.43 172.92 101.539 173.023 101.675C173.15 101.836 173.214 102.031 173.214 102.261C173.214 102.494 173.148 102.699 173.017 102.874C172.89 103.045 172.708 103.179 172.471 103.273C172.238 103.368 171.963 103.416 171.647 103.416C171.33 103.416 171.055 103.368 170.822 103.273C170.589 103.179 170.409 103.045 170.281 102.874C170.154 102.699 170.09 102.494 170.09 102.261C170.09 102.027 170.152 101.83 170.276 101.67C170.379 101.535 170.521 101.428 170.701 101.347C170.577 101.277 170.476 101.191 170.396 101.089C170.283 100.936 170.227 100.754 170.227 100.542C170.227 100.323 170.285 100.135 170.402 99.9781C170.522 99.8176 170.689 99.6935 170.904 99.6059C171.119 99.5183 171.366 99.4745 171.647 99.4745ZM175.837 99.4745C176.186 99.4745 176.483 99.5493 176.727 99.699C176.974 99.8449 177.164 100.058 177.295 100.339C177.426 100.62 177.491 100.967 177.491 101.379C177.491 101.817 177.411 102.188 177.251 102.491C177.095 102.794 176.876 103.023 176.596 103.18C176.316 103.337 175.99 103.416 175.618 103.416C175.425 103.416 175.242 103.396 175.067 103.356C174.892 103.315 174.741 103.253 174.614 103.169L174.876 102.633C174.981 102.702 175.096 102.752 175.22 102.781C175.344 102.806 175.471 102.819 175.602 102.819C175.962 102.819 176.248 102.708 176.459 102.485C176.67 102.263 176.776 101.934 176.776 101.5L176.776 101.5C176.747 101.533 176.716 101.564 176.683 101.593C176.567 101.691 176.43 101.766 176.274 101.817C176.117 101.868 175.944 101.894 175.755 101.894C175.507 101.894 175.283 101.847 175.083 101.752C174.887 101.653 174.73 101.516 174.614 101.341C174.497 101.162 174.439 100.954 174.439 100.717C174.439 100.462 174.501 100.243 174.625 100.06C174.748 99.8741 174.916 99.73 175.127 99.6278C175.342 99.5256 175.578 99.4745 175.837 99.4745ZM180.44 99.4745C180.746 99.4745 181.019 99.5512 181.259 99.7044C181.499 99.8577 181.689 100.082 181.827 100.378C181.969 100.67 182.04 101.025 182.04 101.445C182.04 101.865 181.969 102.222 181.827 102.518C181.689 102.81 181.499 103.033 181.259 103.186C181.019 103.339 180.746 103.416 180.44 103.416C180.138 103.416 179.865 103.339 179.621 103.186C179.381 103.033 179.191 102.81 179.053 102.518C178.915 102.222 178.845 101.865 178.845 101.445C178.845 101.025 178.915 100.67 179.053 100.378C179.191 100.082 179.381 99.8577 179.621 99.7044C179.865 99.5512 180.138 99.4745 180.44 99.4745ZM188.897 100.126H187.254L187.17 101.013H187.537C187.916 101.013 188.22 101.064 188.449 101.166C188.682 101.264 188.852 101.403 188.957 101.582C189.066 101.757 189.121 101.958 189.121 102.184C189.121 102.407 189.066 102.611 188.957 102.797C188.848 102.983 188.68 103.133 188.455 103.246C188.233 103.359 187.951 103.416 187.608 103.416C187.339 103.416 187.075 103.377 186.816 103.301C186.562 103.22 186.347 103.111 186.172 102.972L186.473 102.419C186.611 102.533 186.778 102.624 186.975 102.693C187.175 102.763 187.383 102.797 187.597 102.797C187.849 102.797 188.045 102.744 188.187 102.638C188.333 102.533 188.406 102.39 188.406 102.211C188.406 102.091 188.375 101.985 188.313 101.894C188.254 101.803 188.149 101.733 187.996 101.686C187.847 101.639 187.641 101.615 187.379 101.615H186.456L186.653 99.5293H188.897V100.126ZM196.302 99.4745C196.495 99.4745 196.679 99.4946 196.854 99.5347C197.032 99.5749 197.183 99.6369 197.307 99.7209L197.045 100.257C196.94 100.188 196.825 100.141 196.701 100.115C196.581 100.086 196.454 100.071 196.319 100.071C195.958 100.071 195.673 100.182 195.461 100.405C195.25 100.628 195.145 100.956 195.145 101.39C195.145 101.392 195.145 101.394 195.145 101.396C195.174 101.363 195.205 101.332 195.238 101.303C195.354 101.201 195.491 101.124 195.647 101.073C195.807 101.022 195.98 100.996 196.166 100.996C196.417 100.996 196.641 101.046 196.838 101.144C197.034 101.239 197.191 101.376 197.307 101.555C197.424 101.73 197.482 101.936 197.482 102.173C197.482 102.425 197.42 102.644 197.296 102.83C197.173 103.016 197.005 103.16 196.794 103.262C196.583 103.365 196.346 103.416 196.084 103.416C195.738 103.416 195.441 103.343 195.194 103.197C194.946 103.047 194.757 102.832 194.626 102.551C194.495 102.27 194.429 101.923 194.429 101.511C194.429 101.073 194.508 100.703 194.664 100.4C194.824 100.097 195.045 99.8668 195.325 99.7099C195.609 99.553 195.935 99.4745 196.302 99.4745ZM203.275 99.4745C203.58 99.4745 203.853 99.5512 204.094 99.7044C204.334 99.8577 204.523 100.082 204.662 100.378C204.804 100.67 204.875 101.025 204.875 101.445C204.875 101.865 204.804 102.222 204.662 102.518C204.523 102.81 204.334 103.033 204.094 103.186C203.853 103.339 203.58 103.416 203.275 103.416C202.973 103.416 202.7 103.339 202.456 103.186C202.215 103.033 202.026 102.81 201.888 102.518C201.749 102.222 201.68 101.865 201.68 101.445C201.68 101.025 201.749 100.67 201.888 100.378C202.026 100.082 202.215 99.8577 202.456 99.7044C202.7 99.5512 202.972 99.4745 203.275 99.4745ZM208.73 100.005L207.806 101.109C208.115 101.148 208.358 101.247 208.534 101.407C208.77 101.615 208.889 101.883 208.889 102.211C208.889 102.427 208.834 102.626 208.725 102.808C208.616 102.991 208.448 103.138 208.223 103.252C208 103.361 207.718 103.416 207.376 103.416C207.107 103.416 206.843 103.377 206.584 103.301C206.329 103.22 206.115 103.111 205.94 102.972L206.246 102.419C206.384 102.533 206.552 102.624 206.748 102.693C206.945 102.763 207.15 102.797 207.365 102.797C207.62 102.797 207.818 102.746 207.96 102.644C208.102 102.538 208.173 102.396 208.173 102.217C208.173 102.042 208.108 101.903 207.977 101.801C207.846 101.699 207.635 101.648 207.343 101.648H206.994V101.16L207.861 100.126H206.126V99.5293H208.73V100.005ZM221.415 100.005L220.489 101.109C220.799 101.148 221.042 101.247 221.218 101.407C221.454 101.615 221.573 101.883 221.573 102.211C221.573 102.427 221.518 102.626 221.409 102.808C221.3 102.991 221.132 103.138 220.906 103.252C220.684 103.361 220.402 103.416 220.06 103.416C219.79 103.416 219.527 103.377 219.268 103.301C219.013 103.22 218.798 103.111 218.624 102.972L218.93 102.419C219.068 102.533 219.235 102.624 219.432 102.693C219.629 102.763 219.834 102.797 220.049 102.797C220.304 102.797 220.502 102.746 220.644 102.644C220.787 102.538 220.857 102.396 220.857 102.217C220.857 102.042 220.792 101.903 220.661 101.801C220.53 101.699 220.318 101.648 220.027 101.648H219.678V101.16L220.545 100.126H218.81V99.5293H221.415V100.005ZM184.709 103.361H184V100.126H183.191V99.5293H184.709V103.361ZM191.633 99.4745C191.91 99.4745 192.15 99.5202 192.354 99.6114C192.562 99.699 192.72 99.8249 192.829 99.9891C192.942 100.153 192.999 100.349 192.999 100.575C192.999 100.699 192.982 100.823 192.949 100.947C192.917 101.067 192.855 101.195 192.764 101.33C192.673 101.465 192.54 101.617 192.365 101.785L191.342 102.759H193.146V103.361H190.328V102.885L191.846 101.44C191.974 101.319 192.068 101.213 192.13 101.122C192.192 101.031 192.232 100.947 192.25 100.87C192.272 100.79 192.283 100.715 192.283 100.646C192.283 100.471 192.223 100.336 192.103 100.241C191.983 100.142 191.806 100.093 191.573 100.093C191.388 100.093 191.218 100.126 191.066 100.192C190.916 100.257 190.787 100.358 190.678 100.493L190.181 100.11C190.33 99.9088 190.53 99.7537 190.781 99.6442C191.036 99.5311 191.32 99.4745 191.633 99.4745ZM200.048 103.361H199.338V100.126H198.53V99.5293H200.048V103.361ZM211.041 101.889H212.291V101.117H212.957V101.889H213.634V102.491H212.957V103.361H212.269V102.491H210.172V101.998L212.056 99.5293H212.815L211.041 101.889ZM216.063 99.4745C216.339 99.4745 216.58 99.5202 216.784 99.6114C216.991 99.699 217.149 99.8249 217.258 99.9891C217.372 100.153 217.428 100.349 217.428 100.575C217.428 100.699 217.412 100.823 217.379 100.947C217.346 101.067 217.284 101.195 217.193 101.33C217.102 101.465 216.969 101.617 216.794 101.785L215.771 102.759H217.575V103.361H214.758V102.885L216.275 101.44C216.403 101.319 216.498 101.213 216.56 101.122C216.621 101.031 216.662 100.947 216.68 100.87C216.702 100.79 216.712 100.715 216.712 100.646C216.712 100.471 216.653 100.336 216.532 100.241C216.412 100.142 216.235 100.093 216.002 100.093C215.817 100.093 215.647 100.126 215.495 100.192C215.346 100.257 215.216 100.358 215.107 100.493L214.61 100.11C214.76 99.9088 214.96 99.7537 215.211 99.6442C215.465 99.5311 215.75 99.4745 216.063 99.4745ZM171.647 101.626C171.384 101.626 171.179 101.681 171.03 101.79C170.88 101.899 170.806 102.049 170.806 102.239C170.806 102.432 170.88 102.584 171.03 102.693C171.179 102.803 171.384 102.857 171.647 102.857C171.909 102.857 172.116 102.803 172.269 102.693C172.422 102.584 172.498 102.432 172.498 102.239C172.498 102.049 172.422 101.899 172.269 101.79C172.116 101.681 171.909 101.626 171.647 101.626ZM196.029 101.555C195.877 101.555 195.742 101.584 195.625 101.642C195.512 101.697 195.421 101.774 195.352 101.872C195.287 101.971 195.254 102.084 195.254 102.211C195.254 102.328 195.285 102.436 195.347 102.534C195.409 102.633 195.498 102.711 195.614 102.77C195.734 102.828 195.878 102.857 196.046 102.857C196.191 102.857 196.321 102.832 196.433 102.781C196.546 102.726 196.634 102.649 196.696 102.551C196.761 102.452 196.794 102.337 196.794 102.206C196.794 102.005 196.725 101.847 196.586 101.73C196.448 101.613 196.262 101.555 196.029 101.555ZM180.44 100.093C180.269 100.093 180.116 100.142 179.981 100.241C179.85 100.336 179.746 100.484 179.67 100.684C179.597 100.881 179.561 101.135 179.561 101.445C179.561 101.752 179.597 102.005 179.67 102.206C179.746 102.407 179.85 102.556 179.981 102.655C180.116 102.75 180.269 102.797 180.44 102.797C180.618 102.797 180.773 102.75 180.904 102.655C181.035 102.556 181.137 102.407 181.21 102.206C181.286 102.005 181.325 101.752 181.325 101.445C181.325 101.135 181.286 100.881 181.21 100.684C181.137 100.484 181.035 100.336 180.904 100.241C180.773 100.142 180.618 100.093 180.44 100.093ZM203.275 100.093C203.104 100.093 202.951 100.142 202.816 100.241C202.685 100.336 202.581 100.484 202.505 100.684C202.432 100.881 202.396 101.135 202.396 101.445C202.396 101.752 202.432 102.005 202.505 102.206C202.581 102.407 202.685 102.556 202.816 102.655C202.951 102.75 203.104 102.797 203.275 102.797C203.453 102.797 203.608 102.75 203.739 102.655C203.87 102.556 203.972 102.407 204.045 102.206C204.121 102.005 204.159 101.752 204.159 101.445C204.159 101.135 204.121 100.881 204.045 100.684C203.972 100.484 203.87 100.336 203.739 100.241C203.608 100.142 203.453 100.093 203.275 100.093ZM175.875 100.033C175.729 100.033 175.6 100.06 175.487 100.115C175.374 100.166 175.285 100.241 175.22 100.339C175.158 100.434 175.127 100.549 175.127 100.684C175.127 100.885 175.196 101.044 175.334 101.16C175.473 101.277 175.658 101.336 175.891 101.336C176.044 101.336 176.179 101.308 176.295 101.254C176.412 101.195 176.503 101.117 176.569 101.018C176.634 100.916 176.667 100.803 176.667 100.679C176.667 100.558 176.636 100.451 176.574 100.356C176.512 100.257 176.423 100.179 176.306 100.12C176.19 100.062 176.046 100.033 175.875 100.033ZM171.647 100.033C171.428 100.033 171.253 100.08 171.122 100.175C170.991 100.27 170.926 100.403 170.926 100.575C170.926 100.739 170.99 100.87 171.117 100.969C171.248 101.064 171.425 101.111 171.647 101.111C171.872 101.111 172.051 101.064 172.182 100.969C172.313 100.87 172.378 100.739 172.378 100.575C172.378 100.403 172.311 100.27 172.176 100.175C172.042 100.08 171.865 100.033 171.647 100.033ZM164.36 99.0528H163.449V72.4944H164.36V99.0528ZM166.18 99.0528H165.27V72.4944H166.18V99.0528ZM226.348 99.0528H225.438V72.4944H226.348V99.0528ZM228.169 99.0528H227.258V72.4944H228.169V99.0528ZM170.831 96.5186H167.494V72.4944H170.831V96.5186ZM172.955 96.5186H171.539V72.4944H172.955V96.5186ZM175.701 96.5186H174.285V72.4944H175.701V96.5186ZM180.742 96.5186H177.405V72.4944H180.742V96.5186ZM182.157 96.5186H181.551V72.4944H182.157V96.5186ZM185.393 96.5186H184.18V72.4944H185.393V96.5186ZM187.719 96.5186H186.506V72.4944H187.719V96.5186ZM192.876 96.5186H189.539V72.4944H192.876V96.5186ZM197.427 96.5186H194.09V72.4944H197.427V96.5186ZM199.854 96.5186H198.438V72.4944H199.854V96.5186ZM202.599 96.5186H201.184V72.4944H202.599V96.5186ZM207.64 96.5186H204.303V72.4944H207.64V96.5186ZM209.056 96.5186H208.449V72.4944H209.056V96.5186ZM212.292 96.5186H211.079V72.4944H212.292V96.5186ZM214.618 96.5186H213.405V72.4944H214.618V96.5186ZM219.775 96.5186H216.438V72.4944H219.775V96.5186ZM224.326 96.5186H220.989V72.4944H224.326V96.5186Z" fill="#CCCCCC"/>
<defs>
<radialGradient id="paint0_radial_159_14" cx="0" cy="0" r="1" gradientUnits="userSpaceOnUse" gradientTransform="translate(200 138) rotate(90) scale(138 200)">
<stop stop-color="#282828"/>
<stop offset="1" stop-color="#0F0F0F"/>
</radialGradient>
</defs>
</svg>
