<svg width="21" height="22" viewBox="0 0 21 22" fill="none" xmlns="http://www.w3.org/2000/svg">
<g style="mix-blend-mode:plus-lighter">
<path d="M-7.62939e-06 17.0249C-7.62939e-06 16.6652 0.0996017 16.3193 0.29882 15.9873C0.503573 15.6553 0.755363 15.3288 1.05419 15.0078C1.35855 14.6868 1.66292 14.3687 1.96728 14.0532C2.17203 13.8374 2.33528 13.5718 2.45702 13.2563C2.5843 12.9354 2.68391 12.5895 2.75585 12.2188C2.82779 11.8424 2.8859 11.4551 2.93017 11.0566C2.97444 10.6582 3.01318 10.2681 3.04638 9.88623C3.09618 8.59684 3.25943 7.45687 3.53613 6.46631C3.81282 5.47021 4.23339 4.63737 4.79784 3.96777C5.36783 3.29818 6.1149 2.80566 7.03905 2.49023C7.20507 1.7819 7.55094 1.18978 8.07665 0.713867C8.60237 0.237956 9.24706 0 10.0107 0C10.7689 0 11.4108 0.237956 11.9365 0.713867C12.4678 1.18978 12.8164 1.7819 12.9824 2.49023C13.901 2.80566 14.6453 3.29818 15.2153 3.96777C15.7853 4.63737 16.2087 5.47021 16.4853 6.46631C16.762 7.45687 16.9253 8.59684 16.9751 9.88623C17.0083 10.2681 17.0443 10.6582 17.083 11.0566C17.1273 11.4551 17.1854 11.8424 17.2573 12.2188C17.3348 12.5895 17.4344 12.9354 17.5561 13.2563C17.6834 13.5718 17.8494 13.8374 18.0542 14.0532C18.3586 14.3687 18.6601 14.6868 18.959 15.0078C19.2633 15.3288 19.5151 15.6553 19.7143 15.9873C19.9191 16.3193 20.0215 16.6652 20.0215 17.0249C20.0215 17.368 19.897 17.6419 19.6479 17.8467C19.4045 18.057 19.0669 18.1621 18.6352 18.1621H13.771C13.7544 18.6712 13.6492 19.1499 13.4556 19.5981C13.2674 20.0464 13.0045 20.4421 12.667 20.7852C12.335 21.1338 11.942 21.4049 11.4883 21.5986C11.04 21.7923 10.5475 21.8892 10.0107 21.8892C9.47395 21.8892 8.97867 21.7896 8.52489 21.5903C8.07665 21.3966 7.68375 21.1283 7.34618 20.7852C7.01415 20.4421 6.75129 20.0436 6.55761 19.5898C6.36946 19.1416 6.26708 18.6657 6.25048 18.1621H1.37792C0.951815 18.1621 0.61425 18.057 0.365227 17.8467C0.121737 17.6419 -7.62939e-06 17.368 -7.62939e-06 17.0249ZM1.76806 16.7759H18.2534V16.6514C18.2036 16.5186 18.1012 16.3581 17.9463 16.1699C17.7969 15.9818 17.6198 15.777 17.415 15.5557C17.2158 15.3343 17.0166 15.1157 16.8174 14.8999C16.596 14.6564 16.4106 14.3687 16.2612 14.0366C16.1118 13.6991 15.9873 13.3255 15.8877 12.916C15.7936 12.501 15.7189 12.0527 15.6636 11.5713C15.6082 11.0843 15.5612 10.5669 15.5225 10.019C15.4671 8.60791 15.2928 7.47624 14.9995 6.62402C14.7117 5.76628 14.3299 5.11605 13.854 4.67334C13.3781 4.23063 12.833 3.92627 12.2187 3.76025C12.0693 3.72152 11.9531 3.66618 11.8701 3.59424C11.7871 3.51676 11.7401 3.40609 11.729 3.26221C11.7013 2.70882 11.5353 2.25228 11.2309 1.89258C10.9266 1.53288 10.5198 1.35303 10.0107 1.35303C9.50162 1.35303 9.09488 1.53288 8.79052 1.89258C8.48616 2.25228 8.31738 2.70882 8.28417 3.26221C8.2731 3.40609 8.22607 3.51676 8.14306 3.59424C8.06558 3.66618 7.95214 3.72152 7.80273 3.76025C7.18847 3.92627 6.64062 4.23063 6.15917 4.67334C5.68326 5.11605 5.30142 5.76628 5.01366 6.62402C4.7259 7.47624 4.55435 8.60791 4.49902 10.019C4.46028 10.5669 4.41047 11.0843 4.3496 11.5713C4.29426 12.0527 4.21956 12.501 4.12548 12.916C4.03141 13.3255 3.90966 13.6991 3.76025 14.0366C3.61083 14.3687 3.42545 14.6564 3.20409 14.8999C3.00488 15.1157 2.80289 15.3343 2.59814 15.5557C2.39892 15.777 2.22183 15.9818 2.06689 16.1699C1.91747 16.3581 1.81786 16.5186 1.76806 16.6514V16.7759ZM7.67822 18.1621C7.71695 18.9092 7.95214 19.5013 8.38378 19.9385C8.81542 20.3812 9.35774 20.6025 10.0107 20.6025C10.6637 20.6025 11.206 20.3812 11.6377 19.9385C12.0693 19.5013 12.3045 18.9092 12.3433 18.1621H7.67822Z" fill="#BFBFBF"/>
</g>
</svg>
