<svg width="400" height="400" viewBox="0 0 400 400" fill="none" xmlns="http://www.w3.org/2000/svg">
<rect width="400" height="400" rx="16" fill="url(#paint0_radial_157_14)"/>
<path d="M332.217 298.938C332.217 298.938 279.387 334.273 252.968 351.936L202.896 305.633H249.324C260.704 305.633 270.005 296.335 270.005 284.958V236.248L226.286 221.204C216.38 217.857 211.01 207.01 214.35 197.107C217.019 189.192 224.477 184.175 232.418 184.175C231.714 184.191 236.463 184.493 238.46 185.173L270.005 197.435L299.109 207.576C299.109 207.576 299.142 207.584 299.15 207.601C303.619 209.95 307.157 214.051 308.622 219.265L322.548 268.899L332.217 298.938Z" fill="#F9C9C0"/>
<path d="M252.967 351.936C257.522 348.892 262.862 345.319 268.581 341.496L233.189 308.767H206.285L252.967 351.936Z" fill="#F6B4A8"/>
<path d="M183.416 301.891L141.823 319.399C140.519 319.948 139.193 320.351 137.855 320.612C128.441 322.474 118.641 317.514 114.788 308.33L37.7534 124.701C33.3491 114.203 38.32 102.004 48.8007 97.5924L136.304 60.7587C146.785 56.347 158.955 61.3299 163.359 71.8285L240.393 255.457C244.798 265.956 239.831 278.144 229.35 282.555L219.183 286.834" fill="#202020"/>
<path d="M240.246 255.303C244.652 265.805 239.683 277.996 229.198 282.409L141.7 319.241C131.216 323.655 119.046 318.677 114.64 308.175L37.6058 124.547C33.2033 114.052 38.168 101.854 48.6522 97.4409L136.151 60.609C146.635 56.1955 158.809 61.1793 163.211 71.6743L240.246 255.303Z" stroke="#282828" stroke-width="7" stroke-linecap="round" stroke-linejoin="round"/>
<path d="M117.755 94.7212L85.8512 108.15" stroke="#282828" stroke-width="7" stroke-linecap="round" stroke-linejoin="round"/>
<path d="M216.584 301.891L258.177 319.399C259.481 319.948 260.807 320.351 262.144 320.612C271.559 322.474 281.359 317.514 285.212 308.33L362.247 124.701C366.651 114.203 361.68 102.004 351.199 97.5924L263.696 60.7587C253.215 56.347 241.045 61.3299 236.641 71.8285L159.607 255.457C155.202 265.956 160.169 278.144 170.65 282.555L180.817 286.834" fill="#202020"/>
<path d="M159.754 255.303C155.348 265.805 160.317 277.996 170.802 282.409L258.3 319.241C268.784 323.655 280.954 318.677 285.36 308.175L362.394 124.547C366.797 114.052 361.832 101.854 351.348 97.4409L263.849 60.609C253.365 56.1955 241.191 61.1793 236.789 71.6743L159.754 255.303Z" stroke="#282828" stroke-width="7" stroke-linecap="round" stroke-linejoin="round"/>
<path d="M282.245 94.7212L314.149 108.15" stroke="#282828" stroke-width="7" stroke-linecap="round" stroke-linejoin="round"/>
<path d="M199.55 305.578L154.406 305.565C152.99 305.564 151.611 305.422 150.276 305.143C140.872 303.206 133.753 294.839 133.755 284.891L133.81 85.9684C133.813 74.5955 143.122 65.2932 154.497 65.2963L249.471 65.3222C260.846 65.3253 270.142 74.6322 270.139 86.0052L270.084 284.927C270.081 296.3 260.781 305.594 249.405 305.591L238.37 305.587" fill="#444444"/>
<path d="M269.551 285.098C269.551 296.476 260.251 305.773 248.871 305.773H153.903C142.522 305.773 133.222 296.476 133.222 285.098V86.1757C133.222 74.807 142.522 65.5007 153.903 65.5007H248.871C260.251 65.5007 269.551 74.807 269.551 86.1757V285.098Z" stroke="#202020" stroke-width="7" stroke-linecap="round" stroke-linejoin="round"/>
<path d="M331.79 298.58C331.79 298.58 278.96 333.916 252.541 351.579L296.52 322.515L304.208 295.425C315.588 295.425 303.167 292.62 303.167 281.242L269.577 235.891L225.859 220.847C215.953 217.5 210.582 206.653 213.922 196.749C216.592 188.835 224.049 183.817 231.991 183.817C231.287 183.833 236.035 184.136 238.032 184.816L269.577 197.077L298.682 207.219C298.682 207.219 298.714 207.227 298.722 207.243C303.192 209.592 306.729 213.694 308.195 218.907L322.12 268.542L331.79 298.58Z" fill="#F9C9C0"/>
<path d="M218.7 89.7773H184.073" stroke="#111111" stroke-width="7" stroke-linecap="round" stroke-linejoin="round"/>
<path d="M332.208 298.945L346.834 320.793C347.66 322.026 347.329 323.693 346.096 324.519L271.337 374.546C270.103 375.371 268.435 375.04 267.61 373.807L252.967 351.935" fill="#EBE6EF"/>
<path d="M223.196 186.574C217.745 189.163 213.533 196.174 213.413 202.441C213.321 207.213 214.894 216.819 224.833 220.631C236.834 225.235 262.86 233.603 274.056 237.633C274.056 228.006 265.995 217.847 258.605 215.384C251.215 212.922 246.05 210.501 236.869 207.367C222.721 202.537 223.42 191.275 223.196 186.574Z" fill="#F6B4A8"/>
<defs>
<radialGradient id="paint0_radial_157_14" cx="0" cy="0" r="1" gradientUnits="userSpaceOnUse" gradientTransform="translate(200 200) rotate(90) scale(200)">
<stop stop-color="#282828"/>
<stop offset="1" stop-color="#0F0F0F"/>
</radialGradient>
</defs>
</svg>
