<svg width="26" height="23" viewBox="0 0 26 23" fill="none" xmlns="http://www.w3.org/2000/svg">
<path d="M9.74512 21.333V14.5098C9.74512 14.2718 9.81706 14.0809 9.96095 13.937C10.1048 13.7931 10.2957 13.7212 10.5337 13.7212H15.1074C15.3454 13.7212 15.5335 13.7931 15.6719 13.937C15.8158 14.0809 15.8877 14.2718 15.8877 14.5098V21.333H9.74512ZM0.962898 11.4717C0.66407 11.4717 0.428881 11.3831 0.257332 11.2061C0.0857824 11.0234 7.62939e-06 10.8132 7.62939e-06 10.5752C7.62939e-06 10.4424 0.0304438 10.3123 0.0913162 10.1851C0.152189 10.0522 0.246264 9.93327 0.373543 9.82812L11.4302 0.547852C11.8618 0.182617 12.3239 0 12.8164 0C13.3089 0 13.771 0.182617 14.2026 0.547852L25.2593 9.82812C25.3866 9.93327 25.4806 10.0522 25.5415 10.1851C25.6024 10.3123 25.6328 10.4424 25.6328 10.5752C25.6328 10.8132 25.547 11.0234 25.3755 11.2061C25.2095 11.3831 24.9743 11.4717 24.6699 11.4717C24.526 11.4717 24.3905 11.4385 24.2632 11.3721C24.1414 11.3057 24.0225 11.2254 23.9063 11.1313L13.273 2.20801C13.1291 2.08626 12.9769 2.02539 12.8164 2.02539C12.6559 2.02539 12.5038 2.08626 12.3599 2.20801L1.72657 11.1313C1.61036 11.2254 1.48861 11.3057 1.36134 11.3721C1.23959 11.4385 1.10678 11.4717 0.962898 11.4717ZM19.731 5.73584V3.1543C19.731 2.93848 19.7974 2.76693 19.9302 2.63965C20.0685 2.50684 20.2456 2.44043 20.4614 2.44043H21.773C21.9943 2.44043 22.1714 2.50684 22.3042 2.63965C22.437 2.76693 22.5034 2.93848 22.5034 3.1543V8.06006L19.731 5.73584ZM5.58643 22.6694C4.80616 22.6694 4.20297 22.4591 3.77686 22.0386C3.35076 21.6235 3.1377 21.0342 3.1377 20.2705V8.37549L4.96387 7.12207V19.731C4.96387 20.0907 5.05518 20.3646 5.2378 20.5527C5.42595 20.7464 5.69988 20.8433 6.05958 20.8433H19.5649C19.9302 20.8433 20.2041 20.7464 20.3867 20.5527C20.5749 20.3646 20.669 20.0907 20.669 19.731V7.11377L22.5034 8.37549V20.2705C22.5034 21.0286 22.2876 21.618 21.856 22.0386C21.4299 22.4591 20.8267 22.6694 20.0464 22.6694H5.58643Z" fill="#31C072"/>
</svg>
