<svg width="23" height="23" viewBox="0 0 23 23" fill="none" xmlns="http://www.w3.org/2000/svg">
<g style="mix-blend-mode:plus-lighter">
<path d="M10.2598 22.6694C9.8724 22.6694 9.54037 22.5588 9.26368 22.3374C8.98699 22.1216 8.80437 21.8228 8.71583 21.4409L8.24268 19.3989L7.78614 19.2412L6.01807 20.3369C5.68604 20.5472 5.34294 20.6302 4.98878 20.5859C4.64014 20.5472 4.32748 20.3895 4.05079 20.1128L2.54835 18.6104C2.26612 18.3281 2.10287 18.0127 2.0586 17.6641C2.01986 17.3154 2.10564 16.9779 2.31593 16.6514L3.42823 14.875L3.26221 14.4434L1.22852 13.9702C0.852221 13.8817 0.553393 13.6991 0.332039 13.4224C0.110685 13.1401 7.62939e-06 12.8053 7.62939e-06 12.418V10.293C7.62939e-06 9.9056 0.107918 9.57357 0.323738 9.29688C0.545092 9.02018 0.846687 8.83757 1.22852 8.74902L3.24561 8.25928L3.41993 7.81104L2.30762 6.04297C2.09734 5.71094 2.01156 5.37061 2.0503 5.02197C2.09457 4.67334 2.25782 4.35791 2.54005 4.07568L4.04249 2.57324C4.31365 2.29655 4.62354 2.13883 4.97218 2.1001C5.32634 2.05583 5.66944 2.13607 6.00147 2.34082L7.76954 3.43652L8.24268 3.26221L8.71583 1.22852C8.80437 0.84668 8.98699 0.547852 9.26368 0.332031C9.54037 0.110677 9.8724 0 10.2598 0H12.4263C12.8136 0 13.1457 0.110677 13.4224 0.332031C13.6991 0.547852 13.8817 0.84668 13.9702 1.22852L14.4434 3.26221L14.9082 3.43652L16.6846 2.34082C17.0166 2.13607 17.3569 2.05583 17.7056 2.1001C18.0542 2.13883 18.3669 2.29655 18.6436 2.57324L20.1377 4.07568C20.4255 4.35791 20.5887 4.67334 20.6274 5.02197C20.6662 5.37061 20.5832 5.71094 20.3784 6.04297L19.2661 7.81104L19.4321 8.25928L21.4575 8.74902C21.8394 8.83757 22.1382 9.02018 22.354 9.29688C22.5754 9.57357 22.686 9.9056 22.686 10.293V12.418C22.686 12.8053 22.5754 13.1401 22.354 13.4224C22.1382 13.6991 21.8394 13.8817 21.4575 13.9702L19.4155 14.4434L19.2578 14.875L20.3701 16.6514C20.5749 16.9779 20.6551 17.3154 20.6108 17.6641C20.5721 18.0127 20.4116 18.3281 20.1294 18.6104L18.6353 20.1128C18.353 20.3895 18.0376 20.5472 17.689 20.5859C17.3403 20.6302 17 20.5472 16.668 20.3369L14.8916 19.2412L14.4434 19.3989L13.9702 21.4409C13.8817 21.8228 13.6991 22.1216 13.4224 22.3374C13.1457 22.5588 12.8136 22.6694 12.4263 22.6694H10.2598ZM10.4092 21.2417H12.2769C12.4982 21.2417 12.6283 21.1366 12.667 20.9263L13.2896 18.3032C13.605 18.2202 13.901 18.1206 14.1777 18.0044C14.4544 17.8937 14.7035 17.772 14.9248 17.6392L17.2158 19.0669C17.4095 19.1831 17.5838 19.1582 17.7388 18.9922L19.0254 17.7056C19.1803 17.5562 19.1969 17.3874 19.0752 17.1992L17.6558 14.9082C17.7775 14.6924 17.8965 14.4461 18.0127 14.1694C18.1289 13.8872 18.2285 13.5911 18.3115 13.2812L20.9429 12.667C21.1532 12.6227 21.2583 12.4899 21.2583 12.2686V10.4341C21.2583 10.2127 21.1532 10.0799 20.9429 10.0356L18.3198 9.41309C18.2368 9.09212 18.1317 8.79053 18.0044 8.5083C17.8827 8.22054 17.772 7.97705 17.6724 7.77783L19.0835 5.49512C19.2052 5.30143 19.1914 5.12712 19.042 4.97217L17.7471 3.69385C17.5866 3.54443 17.4095 3.5223 17.2158 3.62744L14.9331 5.03857C14.7062 4.91683 14.4544 4.79785 14.1777 4.68164C13.901 4.56543 13.605 4.46582 13.2896 4.38281L12.667 1.74316C12.6283 1.53288 12.4982 1.42773 12.2769 1.42773H10.4092C10.1878 1.42773 10.0578 1.53288 10.0191 1.74316L9.40479 4.36621C9.10043 4.44922 8.8016 4.5516 8.50831 4.67334C8.22055 4.78955 7.96322 4.90853 7.73634 5.03027L5.46192 3.62744C5.26824 3.5223 5.09392 3.54443 4.93897 3.69385L3.64405 4.97217C3.4891 5.12712 3.4725 5.30143 3.59425 5.49512L5.00538 7.77783C4.9113 7.97705 4.80063 8.22054 4.67335 8.5083C4.5516 8.79053 4.44923 9.09212 4.36622 9.41309L1.74317 10.0356C1.53289 10.0799 1.42774 10.2127 1.42774 10.4341V12.2686C1.42774 12.4899 1.53289 12.6227 1.74317 12.667L4.37452 13.2812C4.45753 13.5856 4.55714 13.8789 4.67335 14.1611C4.79509 14.4434 4.9113 14.6924 5.02198 14.9082L3.60255 17.1992C3.48634 17.3874 3.5057 17.5562 3.66065 17.7056L4.94727 18.9922C5.10222 19.1582 5.27377 19.1831 5.46192 19.0669L7.75294 17.6392C7.97983 17.772 8.23162 17.8937 8.50831 18.0044C8.79053 18.1206 9.0866 18.2202 9.39649 18.3032L10.0191 20.9263C10.0578 21.1366 10.1878 21.2417 10.4092 21.2417ZM11.3472 15.4146C10.589 15.4146 9.90007 15.2319 9.28028 14.8667C8.66602 14.4959 8.17351 14.0034 7.80274 13.3892C7.43751 12.7694 7.25489 12.0832 7.25489 11.3306C7.25489 10.5724 7.43751 9.88623 7.80274 9.27197C8.17351 8.65218 8.66602 8.15967 9.28028 7.79443C9.90007 7.4292 10.589 7.24658 11.3472 7.24658C12.0998 7.24658 12.7832 7.4292 13.3975 7.79443C14.0173 8.15967 14.5098 8.65218 14.875 9.27197C15.2458 9.88623 15.4312 10.5724 15.4312 11.3306C15.4312 12.0832 15.2458 12.7694 14.875 13.3892C14.5098 14.0034 14.0173 14.4959 13.3975 14.8667C12.7832 15.2319 12.0998 15.4146 11.3472 15.4146ZM11.3472 13.9951C11.8342 13.9951 12.2796 13.8761 12.6836 13.6382C13.0876 13.3947 13.4085 13.071 13.6465 12.667C13.89 12.263 14.0117 11.8175 14.0117 11.3306C14.0117 10.8381 13.89 10.3898 13.6465 9.98584C13.4085 9.58187 13.0876 9.2609 12.6836 9.02295C12.2796 8.78499 11.8342 8.66602 11.3472 8.66602C10.8547 8.66602 10.4064 8.78499 10.0024 9.02295C9.59848 9.2609 9.27751 9.58187 9.03956 9.98584C8.8016 10.3898 8.68262 10.8381 8.68262 11.3306C8.68262 11.8175 8.8016 12.263 9.03956 12.667C9.27751 13.071 9.59848 13.3947 10.0024 13.6382C10.4064 13.8761 10.8547 13.9951 11.3472 13.9951Z" fill="#BFBFBF"/>
</g>
</svg>
