<svg width="40" height="40" viewBox="0 0 40 40" fill="none" xmlns="http://www.w3.org/2000/svg">
<circle cx="20" cy="20" r="19.5" fill="#333333" stroke="#444444"/>
<path d="M19 13H21M11 16L13 18L11 20L13 22L11 24M29 16L27 18L29 20L27 22L29 24M19.5 27H20.5M16.25 11H23.75C24.4404 11 25 11.5756 25 12.2857V27.7143C25 28.4244 24.4404 29 23.75 29H16.25C15.5596 29 15 28.4244 15 27.7143V12.2857C15 11.5756 15.5596 11 16.25 11Z" stroke="#AAAAAA" stroke-width="1.4" stroke-linecap="round" stroke-linejoin="round"/>
</svg>
