<svg width="40" height="40" viewBox="0 0 40 40" fill="none" xmlns="http://www.w3.org/2000/svg">
<rect width="40" height="40" rx="20" fill="#444444"/>
<path d="M23.2009 16.8047L12 28M24.401 22.4023H17.6005M20.5367 25.601C20.7472 25.601 20.9556 25.5594 21.15 25.4787C21.3444 25.398 21.521 25.2798 21.6696 25.1308L26.5932 20.1953C27.494 19.295 28 18.0739 28 16.8007C28 15.5275 27.494 14.3064 26.5932 13.4061C25.6925 12.5058 24.4708 12 23.1969 12C21.9231 12 20.7014 12.5058 19.8006 13.4061L14.869 18.3352C14.5689 18.6351 14.4003 19.0418 14.4002 19.466V24.8013C14.4002 25.0134 14.4845 25.2168 14.6345 25.3668C14.7846 25.5168 14.9881 25.601 15.2003 25.601H20.5367Z" stroke="#AAAAAA" stroke-width="1.4" stroke-linecap="round" stroke-linejoin="round"/>
</svg>
