<svg width="16" height="18" viewBox="0 0 16 18" fill="none" xmlns="http://www.w3.org/2000/svg">
<path d="M6.04445 7.8V12.6M9.15556 7.8V12.6M13.0445 3.8V15C13.0445 15.4243 12.8806 15.8313 12.5888 16.1314C12.2971 16.4314 11.9015 16.6 11.4889 16.6H3.71112C3.29856 16.6 2.9029 16.4314 2.61117 16.1314C2.31945 15.8313 2.15556 15.4243 2.15556 15V3.8M0.600006 3.8H14.6M4.4889 3.8V2.2C4.4889 1.77565 4.65278 1.36869 4.94451 1.06863C5.23623 0.768569 5.63189 0.599998 6.04445 0.599998H9.15556C9.56812 0.599998 9.96378 0.768569 10.2555 1.06863C10.5472 1.36869 10.7111 1.77565 10.7111 2.2V3.8" stroke="#DBDBDB" stroke-width="1.2" stroke-linecap="round" stroke-linejoin="round"/>
</svg>
