<svg width="22" height="22" viewBox="0 0 22 22" fill="none" xmlns="http://www.w3.org/2000/svg">
<path d="M9.08936 21.9971C8.03792 21.9971 7.05013 21.8449 6.12598 21.5405C5.20736 21.2362 4.37174 20.8045 3.61914 20.2456C2.87207 19.6867 2.22738 19.0254 1.68506 18.2617C1.14827 17.498 0.733236 16.6597 0.439941 15.7466C0.146647 14.828 0 13.8568 0 12.833C0 11.9144 0.130046 11.0262 0.390137 10.1685C0.655762 9.30518 1.02653 8.50277 1.50244 7.76123C1.98389 7.01969 2.55387 6.36393 3.2124 5.79395C3.87093 5.21842 4.6014 4.75635 5.40381 4.40771C5.6307 4.30811 5.82715 4.27214 5.99316 4.2998C6.16471 4.32747 6.29753 4.39388 6.3916 4.49902C6.48014 4.60417 6.52718 4.73698 6.53271 4.89746C6.53825 5.05794 6.49398 5.23503 6.3999 5.42871C6.21175 5.80501 6.0651 6.28646 5.95996 6.87305C5.85482 7.45964 5.80225 8.06559 5.80225 8.69092C5.80225 10.2957 6.10938 11.6681 6.72363 12.8081C7.34342 13.9425 8.23161 14.8114 9.38818 15.4146C10.5448 16.0122 11.931 16.311 13.5469 16.311C14.1722 16.311 14.7339 16.2668 15.2319 16.1782C15.73 16.0841 16.1838 15.9569 16.5933 15.7964C16.7703 15.73 16.9308 15.7051 17.0747 15.7217C17.2186 15.7383 17.332 15.7909 17.415 15.8794C17.5091 15.9735 17.5645 16.1007 17.5811 16.2612C17.5977 16.4162 17.5617 16.596 17.4731 16.8008C16.9917 17.8965 16.3193 18.8317 15.4561 19.6064C14.5983 20.3812 13.6188 20.9733 12.5176 21.3828C11.4219 21.7923 10.2791 21.9971 9.08936 21.9971ZM9.08936 20.6025C10.0301 20.6025 10.9017 20.467 11.7041 20.1958C12.512 19.9246 13.2342 19.5456 13.8706 19.0586C14.5125 18.5771 15.0521 18.0155 15.4893 17.3735C15.207 17.4565 14.8695 17.5257 14.4766 17.5811C14.0837 17.6364 13.6659 17.6641 13.2231 17.6641C11.8784 17.6641 10.6665 17.4676 9.5874 17.0747C8.5083 16.6763 7.58691 16.1035 6.82324 15.3564C6.05957 14.6038 5.47298 13.6991 5.06348 12.6421C4.65951 11.5796 4.45752 10.3843 4.45752 9.05615C4.45752 8.55811 4.49072 8.06836 4.55713 7.58691C4.62907 7.10547 4.73145 6.68766 4.86426 6.3335C4.16699 6.84261 3.55827 7.43473 3.03809 8.10986C2.52344 8.77946 2.11947 9.51546 1.82617 10.3179C1.53841 11.1203 1.39453 11.9753 1.39453 12.8828C1.39453 13.9508 1.58268 14.9525 1.95898 15.8877C2.34082 16.8174 2.8776 17.6364 3.56934 18.3447C4.26107 19.0531 5.07454 19.6064 6.00977 20.0049C6.94499 20.4033 7.97152 20.6025 9.08936 20.6025ZM17.1162 12.252C17.0332 12.252 16.964 12.2271 16.9087 12.1772C16.8534 12.1219 16.8201 12.0527 16.8091 11.9697C16.7261 11.3997 16.6486 10.9321 16.5767 10.5669C16.5047 10.2017 16.4051 9.91113 16.2778 9.69531C16.1561 9.47949 15.9818 9.31071 15.7549 9.18896C15.528 9.06169 15.2236 8.95378 14.8418 8.86523C14.4655 8.77116 13.9785 8.66878 13.3809 8.55811C13.3034 8.5415 13.237 8.5083 13.1816 8.4585C13.1263 8.40316 13.0986 8.33122 13.0986 8.24268C13.0986 8.15413 13.1263 8.08219 13.1816 8.02686C13.237 7.97152 13.3034 7.93831 13.3809 7.92725C13.9785 7.8387 14.4683 7.7557 14.8501 7.67822C15.2319 7.59521 15.5335 7.49284 15.7549 7.37109C15.9818 7.24382 16.1561 7.0695 16.2778 6.84814C16.4051 6.62126 16.5047 6.32243 16.5767 5.95166C16.6486 5.58089 16.7261 5.10498 16.8091 4.52393C16.8201 4.43538 16.8534 4.36621 16.9087 4.31641C16.964 4.26107 17.0332 4.2334 17.1162 4.2334C17.2048 4.2334 17.2767 4.26107 17.332 4.31641C17.3874 4.37174 17.4206 4.44368 17.4316 4.53223C17.5091 5.10775 17.5838 5.57812 17.6558 5.94336C17.7332 6.30859 17.8356 6.59912 17.9629 6.81494C18.0902 7.02523 18.2673 7.19401 18.4941 7.32129C18.7266 7.44303 19.0309 7.54818 19.4072 7.63672C19.7891 7.71973 20.2705 7.81657 20.8516 7.92725C20.9346 7.94385 21.001 7.97982 21.0508 8.03516C21.1061 8.08496 21.1338 8.15413 21.1338 8.24268C21.1338 8.41976 21.0286 8.5249 20.8184 8.55811C20.2373 8.65771 19.7586 8.74902 19.3823 8.83203C19.006 8.91504 18.7044 9.02018 18.4775 9.14746C18.2507 9.26921 18.0736 9.44076 17.9463 9.66211C17.8245 9.88346 17.7277 10.1768 17.6558 10.542C17.5838 10.9072 17.5091 11.3776 17.4316 11.9531C17.4206 12.0472 17.3874 12.1219 17.332 12.1772C17.2767 12.2271 17.2048 12.252 17.1162 12.252ZM11.9946 5.15479C11.895 5.15479 11.8314 5.09668 11.8037 4.98047C11.7262 4.53223 11.6543 4.18083 11.5879 3.92627C11.5215 3.67171 11.4219 3.47803 11.2891 3.34521C11.1618 3.2124 10.9653 3.10726 10.6997 3.02979C10.4396 2.95231 10.0744 2.86654 9.604 2.77246C9.48226 2.75033 9.42139 2.68669 9.42139 2.58154C9.42139 2.47087 9.48226 2.40446 9.604 2.38232C10.0744 2.28825 10.4368 2.20247 10.6914 2.125C10.9515 2.04199 11.1424 1.93408 11.2642 1.80127C11.3914 1.66292 11.4883 1.46924 11.5547 1.22021C11.6266 0.965658 11.7096 0.617025 11.8037 0.174316C11.8314 0.0581055 11.895 0 11.9946 0C12.0998 0 12.1634 0.0581055 12.1855 0.174316C12.2852 0.617025 12.3682 0.965658 12.4346 1.22021C12.5065 1.46924 12.6061 1.66292 12.7334 1.80127C12.8607 1.93408 13.0516 2.04199 13.3062 2.125C13.5607 2.20247 13.9232 2.28825 14.3936 2.38232C14.5153 2.40446 14.5762 2.47087 14.5762 2.58154C14.5762 2.68669 14.5153 2.75033 14.3936 2.77246C13.9232 2.861 13.5552 2.94401 13.2896 3.02148C13.0295 3.09342 12.833 3.19857 12.7002 3.33691C12.5729 3.46973 12.4761 3.66618 12.4097 3.92627C12.3433 4.18083 12.2686 4.53223 12.1855 4.98047C12.1634 5.09668 12.0998 5.15479 11.9946 5.15479Z" fill="#BFBFBF"/>
</svg>
