<svg width="30" height="30" viewBox="0 0 30 30" fill="none" xmlns="http://www.w3.org/2000/svg">
<circle cx="15" cy="15" r="15" fill="#444444"/>
<path d="M11 10.3336C10.9999 10.0991 11.0637 9.8686 11.1848 9.66554C11.306 9.46249 11.4803 9.29404 11.69 9.17718C11.8998 9.06033 12.1376 8.99921 12.3796 9.00001C12.6215 9.0008 12.8589 9.06348 13.0678 9.18172L21.3151 13.8467C21.5233 13.9639 21.6961 14.1319 21.8162 14.334C21.9364 14.5362 21.9998 14.7654 22 14.9988C22.0002 15.2321 21.9373 15.4614 21.8174 15.6638C21.6976 15.8661 21.5251 16.0345 21.3172 16.1519L13.0678 20.8183C12.8589 20.9365 12.6215 20.9992 12.3796 21C12.1376 21.0008 11.8998 20.9397 11.69 20.8228C11.4803 20.706 11.306 20.5375 11.1848 20.3345C11.0637 20.1314 10.9999 19.9009 11 19.6664V10.3336Z" fill="#31C072"/>
</svg>
